<svg width="590" height="231" viewBox="0 0 590 231" fill="none" xmlns="http://www.w3.org/2000/svg">
<path d="M1.44372 0H207.414L218.002 6.17176H325.318L335.424 0H578.809L590 6.75954V77.2939L578.809 83.1718V103.156L590 110.504V163.698L579.894 169.87L579.413 195.145L590 201.905L589.038 223.065L577.969 230.706L335.424 231L325.799 223.947H217.039L205.008 231H11.5498L0 223.947V182.214L11.5498 175.454V54.6641L1.44372 47.6107V0Z" fill="black" fill-opacity="0.9"/>
<path d="M335.584 231H578.788L590 224.172V201.477L579.738 195.227V169.895L590 163.645V110.142L579.738 103.892V83.3933L590 77.1436C590 31.1213 590 52.7709 590 6.82775L578.788 0H335.584L325.323 6.24965H217.901L207.639 0H11.2116L0 6.82775V49.0217L10.2629 55.2709V175.355L0 181.604V224.172L11.2116 231H207.639L217.901 224.75H325.323L335.584 231ZM206.296 229.026H12.554L3.2404 223.355V182.421L13.5033 176.171V54.4535L3.2404 48.2042V7.64479L12.554 1.97325H206.296L216.559 8.2229H326.665L336.928 1.97325H378.831L389.823 8.66679H498.222L509.214 1.97325H577.447L586.76 7.64479C586.76 52.9108 586.76 30.9988 586.76 76.3266L576.498 82.5763V104.709L586.76 110.959V162.828L576.498 169.078V196.044L586.76 202.294V223.355L577.447 229.026H509.306L498.331 222.343H389.932L378.958 229.026H336.928L326.665 222.777H216.56L206.296 229.026Z" fill="#7EE89F"/>
</svg>
